<?xml version="1.0" encoding="UTF-8" standalone="no"?> <svg id="Layer_1" data-name="Layer 1" xmlns="http://www.w3.org/2000/svg" viewBox="0 0 128 128"><defs></defs><title>x</title><path class="cls-1" d="M126.0905,111.42162a5.60966,5.60966,0,0,0-.508-1.17329c-4.19738-7.4879-55.543-99.08451-55.75885-99.42107A6.8993,6.8993,0,0,0,64.009,7.69556h-.018a6.8993,6.8993,0,0,0-5.81465,3.1317c-.21586.33656-51.56147,91.93317-55.75885,99.42107a5.60966,5.60966,0,0,0-.508,1.17329,6.86112,6.86112,0,0,0,1.94972,6.95905,6.90487,6.90487,0,0,0,6.0903,1.78718c.57649-.11819,54.05-19.9215,54.05-19.9215L64,100.24653l.00053-.00019s53.47346,19.80331,54.05,19.9215a7.00483,7.00483,0,0,0,8.04-8.74623Z"/></svg>