<?xml version="1.0" encoding="UTF-8" standalone="no"?> <svg id="Layer_1" data-name="Layer 1" xmlns="http://www.w3.org/2000/svg" viewBox="0 0 128 128"><defs></defs><title>n</title>
<path class="cls-2" d="M101.05378,6.57462a13.46152,13.46152,0,0,0-9.878-4.109H36.82426a13.46152,13.46152,0,0,0-9.878,4.109,13.47156,13.47156,0,0,0-4.109,9.87811v95.09453A14.02929,14.02929,0,0,0,36.82426,125.5344H91.17574a14.02929,14.02929,0,0,0,13.98707-13.98713V16.45274A13.49607,13.49607,0,0,0,101.05378,6.57462ZM67.93545,119.99889a5.495,5.495,0,1,1,1.66-3.93232A5.40365,5.40365,0,0,1,67.93545,119.99889Zm28.78212-19.6362a5.571,5.571,0,0,1-5.54183,5.54177H36.82426a5.58192,5.58192,0,0,1-5.54183-5.54177V16.45274a5.582,5.582,0,0,1,5.54183-5.5419H91.17574a5.58214,5.58214,0,0,1,5.54183,5.5419Z"/></svg>